<svg id="Layer_1" data-name="Layer 1" xmlns="http://www.w3.org/2000/svg" viewBox="0 0 808.92 808.96"><defs><style>.cls-1{fill:#fff;}</style></defs><title>w sym</title><path class="cls-1" d="M422.25,0c7.82.71,15.65,1.35,23.47,2.14a394.77,394.77,0,0,1,116.43,29.8Q671.32,78.62,738.59,176.55c36.27,52.84,58.76,111.18,66.8,174.78,12.3,97.25-7.52,187.68-59.9,270.6C714.83,670.46,675.14,710.35,627.24,742a404.49,404.49,0,0,1-432.11,8.52,401.31,401.31,0,0,1-129.35-125A395,395,0,0,1,5.6,470.94c-2.37-14.65-3.32-29.53-4.94-44.3-.16-1.47-.44-2.93-.66-4.39V387a36.46,36.46,0,0,0,.61-4,389.77,389.77,0,0,1,9-66.38q23.57-105.28,96.3-185A403.19,403.19,0,0,1,362.78,2.18C370.84,1.37,378.93.72,387,0ZM403.71,16.11C295.41,13.36,144.06,68.84,62.14,219.92c-41.2,76-54.63,157.31-42.25,242.74,7,48,22.83,93.11,47.53,135.89Zm337.63,582c64.29-106.44,80.8-275.39-18.26-416.65-49.83-71.06-116.48-120-199-147.16A373.52,373.52,0,0,0,405,15.65ZM69.68,601.89c63.47,110.89,200.59,205.33,370.71,189.86,79.23-7.2,149.69-36.61,211.25-87a384,384,0,0,0,88-102.87ZM552.91,302.82l-148.42-257L256.09,302.82ZM404.51,571.61A119.26,119.26,0,1,0,285.29,452.37,119.16,119.16,0,0,0,404.51,571.61ZM554.68,305.88l-.64.29V585.9H716.35ZM254.77,586V306.49l-.71-.16Q173.48,445.89,92.58,586ZM538,476c-14.4,59.71-50.74,96-110.6,110,1.65.17,2.13.26,2.61.26,35,0,70,0,104.92.09,3.54,0,3.37-1.81,3.37-4.21q0-50.77,0-101.55C538.29,479.36,538.16,478.18,538,476Zm-267.12,110H381.5C321.14,571.79,284.72,535,270.9,475.28Zm157-267.12c59.31,14,95.94,50.19,110.15,110.11V318.81ZM270.86,429c5.72-27.73,18.06-51.93,38.12-72s44.29-32.41,72.07-38H270.86Z"/><path class="cls-1" d="M423.88,473.41c-4.21,12.77-10.74,23.63-20.59,32.16-21.59,18.68-46.06,23.19-73.09,14.19-.47-.15-.9-.43-1.37-.6-2.28-.79-4.49-2.15-3.89-4.7a7.67,7.67,0,0,1,3.74-4.5,68.25,68.25,0,0,0,19.79-14c29.83-30.6,20.37-82.29-18.39-100.36-.68-.31-1.55-.47-2-1-1.2-1.41-3.13-3-3.06-4.48a5.83,5.83,0,0,1,3.39-4.21c6.55-2,13.19-4.34,19.92-4.83,35-2.56,62.85,15.82,75,48.77a13.17,13.17,0,0,0,.74,1.39c8.86-11.77,20.39-17.95,35.11-16.84a36.77,36.77,0,0,1,26.22,13.63A38.17,38.17,0,0,1,481,481.31C466.28,494.1,440.17,495.25,423.88,473.41Zm-82.39,40c22.94,6,52.39-3.59,67.73-29,13.87-23,10.8-53.74-7.51-74.19-17.16-19.17-44.58-24-59.79-18.59,21.11,14.78,33,34.65,33,60.63S363,498.4,341.49,513.44ZM456,481.54a29.19,29.19,0,0,0,29.22-29,29.21,29.21,0,1,0-29.22,29Z"/><path class="cls-1" d="M468.84,452.51A12.49,12.49,0,0,1,456,465.22a12.83,12.83,0,1,1,12.87-12.71Z"/></svg>